<svg width="2338" height="516" viewBox="0 0 2338 516" fill="none" xmlns="http://www.w3.org/2000/svg">
<path d="M642.151 510.252C633.237 510.252 625.589 508.798 619.208 505.889C612.828 502.98 607.855 498.898 604.289 493.643C600.817 488.295 598.847 482.008 598.377 474.783L623.431 473.516C623.9 477.082 624.885 480.131 626.387 482.665C627.982 485.105 630.093 486.981 632.72 488.295C635.348 489.515 638.585 490.125 642.432 490.125C645.529 490.125 648.156 489.796 650.314 489.139C652.566 488.389 654.255 487.31 655.381 485.902C656.507 484.401 657.07 482.524 657.07 480.272C657.07 478.302 656.554 476.566 655.522 475.064C654.584 473.469 652.707 472.062 649.892 470.842C647.077 469.622 642.901 468.402 637.365 467.182C628.451 465.306 621.273 463.148 615.83 460.708C610.388 458.268 606.4 455.125 603.867 451.278C601.427 447.431 600.207 442.551 600.207 436.64C600.207 430.541 601.755 425.192 604.852 420.594C607.948 415.903 612.406 412.29 618.223 409.756C624.135 407.129 631.172 405.815 639.336 405.815C647.968 405.815 655.24 407.317 661.152 410.319C667.063 413.228 671.661 417.31 674.945 422.565C678.23 427.726 680.2 433.684 680.857 440.44L656.085 441.566C655.803 438.282 654.959 435.514 653.551 433.262C652.144 430.916 650.22 429.133 647.781 427.913C645.341 426.6 642.432 425.943 639.054 425.943C634.738 425.943 631.36 426.834 628.92 428.617C626.574 430.4 625.401 432.793 625.401 435.795C625.401 438.047 625.964 439.924 627.09 441.425C628.216 442.927 630.14 444.193 632.861 445.225C635.582 446.258 639.289 447.243 643.98 448.181C653.645 449.964 661.246 452.31 666.782 455.219C672.412 458.034 676.4 461.459 678.746 465.493C681.092 469.434 682.264 474.032 682.264 479.287C682.264 485.574 680.669 491.063 677.479 495.755C674.289 500.446 669.691 504.059 663.685 506.592C657.68 509.032 650.502 510.252 642.151 510.252ZM880.475 510.252C870.153 510.252 861.239 508.141 853.732 503.918C846.319 499.696 840.595 493.69 836.561 485.902C832.62 478.114 830.649 468.871 830.649 458.174C830.649 447.477 832.62 438.235 836.561 430.447C840.595 422.565 846.319 416.512 853.732 412.29C861.145 407.974 870.059 405.815 880.475 405.815C890.89 405.815 899.804 407.974 907.217 412.29C914.63 416.512 920.307 422.565 924.248 430.447C928.283 438.235 930.3 447.477 930.3 458.174C930.3 468.871 928.283 478.114 924.248 485.902C920.307 493.69 914.63 499.696 907.217 503.918C899.804 508.141 890.89 510.252 880.475 510.252ZM880.475 489.843C885.542 489.843 889.858 488.623 893.424 486.184C896.989 483.65 899.71 480.038 901.587 475.346C903.558 470.654 904.543 464.93 904.543 458.174C904.543 451.418 903.558 445.695 901.587 441.003C899.71 436.217 896.989 432.558 893.424 430.024C889.858 427.491 885.542 426.224 880.475 426.224C875.408 426.224 871.044 427.491 867.385 430.024C863.819 432.558 861.098 436.217 859.221 441.003C857.345 445.695 856.406 451.418 856.406 458.174C856.406 464.93 857.345 470.654 859.221 475.346C861.192 480.038 863.96 483.65 867.526 486.184C871.091 488.623 875.408 489.843 880.475 489.843ZM1078.57 508V408.067H1149.93V428.476H1089.41L1103.62 413.838V459.582L1089.41 449.026H1147.4V469.294H1089.41L1103.62 458.737V508H1078.57ZM1321.41 508V428.476H1291.86V408.067H1376.03V428.476H1346.47V508H1321.41ZM1543.86 508L1516.55 408.067H1542.59L1558.35 473.235L1574.54 408.067H1595.23L1611.42 473.235L1627.04 408.067H1653.08L1625.91 508H1599.87L1584.81 449.448L1569.89 508H1543.86ZM1779.45 508L1815.48 408.067H1844.47L1880.51 508H1854.75L1848.41 489.562H1811.4L1805.06 508H1779.45ZM1818.15 469.716H1841.8L1829.98 435.232L1818.15 469.716ZM2023.87 508V408.067H2069.9C2077.4 408.067 2083.88 409.287 2089.32 411.727C2094.86 414.167 2099.13 417.592 2102.13 422.002C2105.13 426.412 2106.63 431.667 2106.63 437.766C2106.63 442.364 2105.69 446.492 2103.82 450.152C2102.03 453.717 2099.45 456.673 2096.08 459.019C2092.7 461.271 2088.71 462.772 2084.11 463.523L2083.69 462.115C2090.63 462.115 2095.84 463.617 2099.31 466.62C2102.79 469.528 2104.71 473.892 2105.08 479.709L2107.48 508H2082L2080.31 483.791C2080.12 480.131 2079.05 477.41 2077.07 475.627C2075.2 473.845 2071.91 472.953 2067.22 472.953H2048.92V508H2023.87ZM2048.92 452.544H2065.96C2070.83 452.544 2074.54 451.512 2077.07 449.448C2079.7 447.29 2081.02 444.287 2081.02 440.44C2081.02 436.499 2079.7 433.543 2077.07 431.573C2074.45 429.508 2070.65 428.476 2065.67 428.476H2048.92V452.544ZM2258.79 508V408.067H2330.99V428.476H2283.84V447.759H2329.3V468.027H2283.84V487.591H2332.12V508H2258.79Z" fill="black" fill-opacity="0.48"/>
<path d="M204.235 117.997L152.342 208H412L397.558 233H137.901L123.469 258H383.098L354.234 308H152.344L210.093 408L267.827 508H152.339L8 258L146.37 17.7715L204.235 117.997ZM441 508H296.694L238.96 408H498.746L441 508ZM498.718 108H227.331L169.597 8H441L498.718 108Z" fill="url(#paint0_linear_4019_106)"/>
<path d="M598.718 308V8.00368H781.673V32.933H624.492V145.748H776.603V170.255H624.492V283.071H785.054V308H598.718ZM889.785 308V8.00368H915.559V294.902L904.573 283.071H1070.63V308H889.785ZM1148.25 308V8.00368H1331.21V32.933H1174.03V145.748H1326.14V170.255H1174.03V283.071H1334.59V308H1148.25ZM1436.02 308V8.00368H1473.2L1638.41 282.648V8.00368H1664.61V308H1626.16L1461.79 36.3132V308H1436.02ZM1891.85 314.76C1865.66 314.76 1842.7 308.563 1822.98 296.169C1803.26 283.493 1787.91 265.465 1776.93 242.085C1766.22 218.705 1760.87 190.818 1760.87 158.424C1760.87 126.03 1766.22 98.1434 1776.93 74.7634C1787.91 51.1017 1803.26 32.933 1822.98 20.257C1842.7 7.58116 1865.66 1.24322 1891.85 1.24322C1926.5 1.24322 1953.68 10.5389 1973.4 29.1302C1993.4 47.7215 2006.36 72.7916 2012.28 104.341L1984.81 106.031C1980.59 81.8056 1970.73 62.5101 1955.23 48.144C1939.74 33.778 1918.61 26.595 1891.85 26.595C1871.01 26.595 1852.7 31.9471 1836.93 42.6512C1821.43 53.3552 1809.46 68.5663 1801.01 88.2844C1792.56 107.721 1788.33 131.101 1788.33 158.424C1788.33 185.748 1792.56 209.128 1801.01 228.564C1809.46 248.001 1821.43 263.071 1836.93 273.775C1852.7 284.197 1871.01 289.409 1891.85 289.409C1919.74 289.409 1941.71 281.662 1957.77 266.17C1973.83 250.677 1983.68 229.691 1987.35 203.213L2014.81 204.903C2011.43 227.156 2004.39 246.451 1993.68 262.789C1983.26 279.127 1969.46 291.944 1952.28 301.24C1935.09 310.253 1914.95 314.76 1891.85 314.76ZM2116.77 308V8.00368H2142.55V152.931L2130.72 143.213H2317.05L2305.64 152.931V8.00368H2331.42V308H2305.64V158.424L2317.05 168.143H2130.72L2142.55 158.424V308H2116.77Z" fill="black"/>
<defs>
<linearGradient id="paint0_linear_4019_106" x1="279.213" y1="8" x2="277.514" y2="508" gradientUnits="userSpaceOnUse">
<stop stop-color="#8347E9"/>
<stop offset="1" stop-color="#5E2DAC"/>
</linearGradient>
</defs>
</svg>
